<?xml version="1.0" encoding="UTF-8"?>
<svg id="_レイヤー_1" data-name="レイヤー 1" xmlns="http://www.w3.org/2000/svg" viewBox="0 0 219.43 228">
  <defs>
    <style>
      .cls-1 {
        fill: #bdd6ef;
      }
    </style>
  </defs>
  <path class="cls-1" d="M159.85,169.13h-46.87c-2.21,0-4,1.79-4,4v46.87H16.63c-4.76,0-8.63-3.87-8.63-8.63V16.63c0-4.76,3.87-8.63,8.63-8.63H151.22c4.76,0,8.63,3.87,8.63,8.63v23.88l8-8v-15.88c0-9.17-7.46-16.63-16.63-16.63H16.63C7.46,0,0,7.46,0,16.63V211.37c0,9.17,7.46,16.63,16.63,16.63H112.99c1.11,0,2.11-.45,2.83-1.17l50.86-50.86s0,0,0,0c.13-.13,.22-.25,.3-.37,.53-.68,.86-1.52,.86-2.45V103.22l-8,8v57.91Zm-42.87,45.21v-37.21h37.21l-37.21,37.21Z"/>
  <polygon class="cls-1" points="71.51 69.34 55.95 84.89 111.17 140.11 219.43 31.84 203.88 16.29 111.17 109 71.51 69.34"/>
</svg>