<?xml version="1.0" encoding="UTF-8"?>
<svg id="_レイヤー_1" data-name="レイヤー 1" xmlns="http://www.w3.org/2000/svg" viewBox="0 0 193.65 226">
  <defs>
    <style>
      .cls-1 {
        fill: #bdd6ef;
      }
    </style>
  </defs>
  <rect class="cls-1" x="25.98" y="34.09" width="75.33" height="6"/>
  <rect class="cls-1" x="25.98" y="60.08" width="75.33" height="6"/>
  <rect class="cls-1" x="25.98" y="86.07" width="75.33" height="6"/>
  <path class="cls-1" d="M46.95,138.29c0,9.2,7.49,16.69,16.69,16.69s16.69-7.49,16.69-16.69-7.49-16.69-16.69-16.69-16.69,7.49-16.69,16.69Zm27.38,0c0,5.89-4.8,10.69-10.69,10.69s-10.69-4.79-10.69-10.69,4.8-10.69,10.69-10.69,10.69,4.8,10.69,10.69Z"/>
  <path class="cls-1" d="M6,177.4V13.4c0-4.08,3.32-7.4,7.4-7.4H113.89c4.08,0,7.4,3.32,7.4,7.4V86.41c1.96-.45,3.97-.83,6-1.16V13.4c0-7.39-6.01-13.4-13.4-13.4H13.4C6.01,0,0,6.01,0,13.4V177.4c0,7.39,6.01,13.4,13.4,13.4H86.54v-6H13.4c-4.08,0-7.4-3.32-7.4-7.4Z"/>
  <path class="cls-1" d="M193.65,116.49c0-13.24-21.55-23.61-49.06-23.61s-48.17,9.96-49.02,22.81c-.02,.13-.04,.26-.04,.4v86.3c0,13.24,21.55,23.61,49.06,23.61s49.06-10.37,49.06-23.61V116.88s-.01-.09-.01-.13c0-.09,.01-.17,.01-.26Zm-6,57.27c0,8.33-17.68,17.61-43.06,17.61s-43.06-9.28-43.06-17.61v-17.15c8.26,7.29,24.26,12.13,43.06,12.13s34.8-4.84,43.06-12.13v17.15Zm0-28.63c0,8.33-17.68,17.61-43.06,17.61s-43.06-9.28-43.06-17.61v-17.16c8.26,7.29,24.26,12.13,43.06,12.13s34.8-4.84,43.06-12.13v17.16Zm-43.06-46.24c25.37,0,43.06,9.28,43.06,17.61s-17.68,17.61-43.06,17.61-43.06-9.28-43.06-17.61,17.68-17.61,43.06-17.61Zm0,121.12c-25.37,0-43.06-9.28-43.06-17.61v-17.16c8.26,7.29,24.26,12.13,43.06,12.13s34.8-4.84,43.06-12.13v17.16c0,8.33-17.68,17.61-43.06,17.61Z"/>
</svg>