<?xml version="1.0" encoding="UTF-8"?>
<svg id="_レイヤー_1" data-name="レイヤー 1" xmlns="http://www.w3.org/2000/svg" viewBox="0 0 226.5 206.67">
  <defs>
    <style>
      .cls-1 {
        fill: #bdd6ef;
      }
    </style>
  </defs>
  <rect class="cls-1" x="45.45" y="9.73" width="22.27" height="6.5"/>
  <rect class="cls-1" x="129.97" y="9.73" width="22.27" height="6.5"/>
  <rect class="cls-1" x="87.71" y="9.73" width="22.27" height="6.5"/>
  <path class="cls-1" d="M35.46,26.28c1.79,0,3.25-1.46,3.25-3.25V3.25c0-1.79-1.46-3.25-3.25-3.25s-3.25,1.46-3.25,3.25V23.03c0,1.79,1.46,3.25,3.25,3.25Z"/>
  <path class="cls-1" d="M77.72,26.28c1.79,0,3.25-1.46,3.25-3.25V3.25c0-1.79-1.46-3.25-3.25-3.25s-3.25,1.46-3.25,3.25V23.03c0,1.79,1.46,3.25,3.25,3.25Z"/>
  <path class="cls-1" d="M119.98,26.28c1.79,0,3.25-1.46,3.25-3.25V3.25c0-1.79-1.46-3.25-3.25-3.25s-3.25,1.46-3.25,3.25V23.03c0,1.79,1.46,3.25,3.25,3.25Z"/>
  <path class="cls-1" d="M162.23,26.28c1.79,0,3.25-1.46,3.25-3.25V3.25c0-1.79-1.46-3.25-3.25-3.25s-3.25,1.46-3.25,3.25V23.03c0,1.79,1.46,3.25,3.25,3.25Z"/>
  <rect class="cls-1" x="24.57" y="47.47" width="21.77" height="21.77" rx="4.8" ry="4.8"/>
  <rect class="cls-1" x="66.83" y="47.47" width="21.77" height="21.77" rx="4.8" ry="4.8"/>
  <rect class="cls-1" x="109.09" y="47.47" width="21.77" height="21.77" rx="4.8" ry="4.8"/>
  <rect class="cls-1" x="151.35" y="47.47" width="21.77" height="21.77" rx="4.8" ry="4.8"/>
  <rect class="cls-1" x="24.57" y="89.73" width="21.77" height="21.77" rx="4.8" ry="4.8"/>
  <rect class="cls-1" x="66.83" y="89.73" width="21.77" height="21.77" rx="4.8" ry="4.8"/>
  <rect class="cls-1" x="109.09" y="89.73" width="21.77" height="21.77" rx="4.8" ry="4.8"/>
  <rect class="cls-1" x="24.57" y="131.98" width="21.77" height="21.77" rx="4.8" ry="4.8"/>
  <rect class="cls-1" x="66.83" y="131.98" width="21.77" height="21.77" rx="4.8" ry="4.8"/>
  <path class="cls-1" d="M191.19,26.42V101.02c2.22,.57,4.39,1.29,6.5,2.11V26.42c0-9.21-7.49-16.7-16.7-16.7h-8.77v6.5h8.77c5.62,0,10.2,4.57,10.2,10.2Z"/>
  <path class="cls-1" d="M16.7,175.65c-5.62,0-10.2-4.57-10.2-10.2V26.42c0-5.62,4.57-10.2,10.2-10.2h8.77v-6.5h-8.77C7.49,9.73,0,17.22,0,26.42V165.45c0,9.21,7.49,16.7,16.7,16.7H124.83c-1.02-2.1-1.91-4.27-2.67-6.5H16.7Z"/>
  <path class="cls-1" d="M202.24,153.71h-22.2v-24.53c0-1.79-1.46-3.25-3.25-3.25s-3.25,1.46-3.25,3.25v27.78c0,1.79,1.46,3.25,3.25,3.25h25.45c1.79,0,3.25-1.46,3.25-3.25s-1.46-3.25-3.25-3.25Z"/>
  <path class="cls-1" d="M176.79,107.25c-27.41,0-49.71,22.3-49.71,49.71s22.3,49.71,49.71,49.71,49.71-22.3,49.71-49.71-22.3-49.71-49.71-49.71Zm0,92.92c-23.83,0-43.21-19.38-43.21-43.21s19.38-43.21,43.21-43.21,43.21,19.38,43.21,43.21-19.38,43.21-43.21,43.21Z"/>
</svg>