<?xml version="1.0" encoding="UTF-8"?>
<svg id="_レイヤー_1" data-name="レイヤー 1" xmlns="http://www.w3.org/2000/svg" viewBox="0 0 184.57 225">
  <defs>
    <style>
      .cls-1 {
        fill: #bdd6ef;
      }
    </style>
  </defs>
  <path class="cls-1" d="M53.81,182.14c-29.19,0-48.81-10.58-48.81-20.46v-15.54c8.48,8.68,26.92,14.57,48.81,14.57,4.63,0,9.1-.27,13.36-.76-.2-1.64-.31-3.3-.33-4.98-4.08,.48-8.44,.74-13.03,.74-29.19,0-48.81-10.58-48.81-20.46v-15.54c8.48,8.68,26.92,14.57,48.81,14.57,6.49,0,12.67-.52,18.38-1.47,1.06-2.01,2.27-3.93,3.6-5.75-6.44,1.4-13.84,2.23-21.99,2.23-29.19,0-48.81-10.58-48.81-20.46v-15.54c8.48,8.68,26.92,14.57,48.81,14.57s40.33-5.89,48.81-14.57v15.54c0,.15-.02,.31-.03,.46,1.64-.39,3.32-.69,5.03-.89v-6c13.86-2.22,25.02-6.99,31.08-13.2v15.54c0,2.81-1.59,5.68-4.54,8.34,1.55,.79,3.04,1.65,4.48,2.6,3.25-3.3,5.06-7,5.06-10.95V25.9c0-.05-.01-.1-.01-.15,0-.1,.01-.19,.01-.29,0-14.27-23.63-25.46-53.81-25.46S37.1,10.71,36.12,24.55c-.03,.15-.05,.3-.05,.46V58.31C15.45,61.62,.82,70.59,.05,81.5c-.03,.15-.05,.3-.05,.46v79.72c0,14.28,23.63,25.46,53.81,25.46,8.74,0,16.93-.94,24.16-2.62-1.19-1.39-2.3-2.84-3.32-4.37-6.17,1.26-13.17,1.99-20.84,1.99Zm84.88-103.83c0,7.71-11.95,15.84-31.08,19.04v-14.51c0-.05-.01-.1-.01-.15,0-.1,.01-.19,.01-.29,0-2.15-.54-4.22-1.55-6.2,14.58-2.1,26.34-7,32.63-13.44v15.54ZM89.88,5c29.19,0,48.81,10.58,48.81,20.46s-19.61,20.46-48.81,20.46-48.81-10.58-48.81-20.46S60.69,5,89.88,5ZM41.08,51.88v-15.54c8.48,8.68,26.92,14.57,48.81,14.57s40.33-5.89,48.81-14.57v15.54c0,8.35-14.02,17.19-35.99,19.73-8.44-8.73-26.93-14.66-48.9-14.66-3.68,0-7.26,.17-10.71,.48-1.31-1.82-2.02-3.7-2.02-5.55Zm12.73,10.06c29.19,0,48.81,10.58,48.81,20.46s-19.61,20.46-48.81,20.46S5,92.28,5,82.4s19.61-20.46,48.81-20.46Z"/>
  <path class="cls-1" d="M183.06,207.51l-26.57-26.57c-.98-.98-2.56-.98-3.54,0l-4.52,4.52-6.47-6.47c5.66-6.62,9.09-15.2,9.09-24.57,0-20.88-16.99-37.87-37.87-37.87s-37.87,16.99-37.87,37.87,16.99,37.87,37.87,37.87c9.71,0,18.58-3.68,25.29-9.72l6.42,6.42-4.4,4.4c-.98,.98-.98,2.56,0,3.54l9.39,9.39s0,0,0,0,0,0,0,0l17.17,17.17c1,1,2.32,1.5,3.64,1.5s2.63-.5,3.63-1.5l8.71-8.71c2-2,2-5.27,0-7.27Zm-69.87-20.22c-18.12,0-32.87-14.74-32.87-32.87s14.74-32.87,32.87-32.87,32.87,14.74,32.87,32.87-14.74,32.87-32.87,32.87Zm41.53-1.04l5.86,5.86-8.91,8.91-5.86-5.86,8.91-8.91Zm24.8,25l-8.71,8.71c-.05,.05-.14,.05-.2,0l-15.41-15.41,8.91-8.91,15.41,15.41c.06,.06,.06,.14,0,.2Z"/>
</svg>