<?xml version="1.0" encoding="UTF-8"?>
<svg xmlns="http://www.w3.org/2000/svg" viewBox="0 0 800 448.17">
  <defs>
    <style>
      .cls-1, .cls-2 {
        letter-spacing: 0em;
      }

      .cls-1, .cls-2, .cls-3, .cls-4 {
        fill: #111827;
      }

      .cls-5 {
        letter-spacing: 0em;
      }

      .cls-2, .cls-6, .cls-7, .cls-4, .cls-8 {
        font-family: YuGothic-Bold, 'Yu Gothic';
        font-weight: 700;
      }

      .cls-2, .cls-4, .cls-8 {
        font-size: 18px;
      }

      .cls-3, .cls-9, .cls-4 {
        letter-spacing: 0em;
      }

      .cls-6 {
        font-size: 21.29px;
        letter-spacing: 0em;
      }

      .cls-6, .cls-7, .cls-10 {
        fill: #fff;
      }

      .cls-7 {
        font-size: 12.42px;
      }

      .cls-11 {
        stroke-width: 5px;
      }

      .cls-11, .cls-10 {
        stroke: #fff;
      }

      .cls-11, .cls-10, .cls-12 {
        stroke-miterlimit: 10;
      }

      .cls-11, .cls-13 {
        fill: #2a529e;
      }

      .cls-14 {
        letter-spacing: .25em;
      }

      .cls-15 {
        letter-spacing: .25em;
      }

      .cls-12 {
        fill: none;
        stroke: #2a529e;
        stroke-width: 2px;
      }

      .cls-9 {
        fill: #ef4444;
      }
    </style>
  </defs>
  <g id="_レイヤー_1" data-name="レイヤー 1">
    <g>
      <path class="cls-11" d="M547.62,71.62c-36.9-34.44-85.88-56.1-139.88-57.95-4.1-.14-7.51,3.14-7.51,7.25V212.11c0,6.45,7.8,9.69,12.37,5.12l135.2-135.2c2.9-2.9,2.82-7.62-.17-10.42Z"/>
      <path class="cls-11" d="M616.17,222.1c-1.84-54.01-23.51-102.98-57.95-139.88-2.8-3-7.52-3.07-10.42-.17l-135.2,135.2c-4.56,4.56-1.33,12.37,5.12,12.37h191.2c4.1,0,7.39-3.41,7.25-7.51Z"/>
      <path class="cls-11" d="M242.25,82.21c-34.44,36.9-56.1,85.88-57.95,139.88-.14,4.1,3.14,7.51,7.25,7.51h191.2c6.45,0,9.69-7.8,5.12-12.37L252.67,82.04c-2.9-2.9-7.62-2.82-10.42,.17Z"/>
      <path class="cls-11" d="M184.3,237.11c1.84,54.01,23.51,102.98,57.95,139.88,2.8,3,7.52,3.07,10.42,.17l135.2-135.2c4.56-4.56,1.33-12.37-5.12-12.37H191.55c-4.1,0-7.39,3.41-7.25,7.51Z"/>
      <path class="cls-11" d="M412.6,241.97l135.2,135.2c2.9,2.9,7.62,2.82,10.42-.17,34.44-36.9,56.1-85.88,57.95-139.88,.14-4.1-3.14-7.51-7.25-7.51h-191.2c-6.45,0-9.69,7.8-5.12,12.37Z"/>
      <path class="cls-11" d="M547.8,377.17l-135.2-135.2c-1.77-1.77-4.04-2.37-6.15-2.06-4.12,.61-8.33,.61-12.45,0-2.11-.31-4.37,.28-6.15,2.06l-135.2,135.2c-2.89,2.89-2.83,7.61,.15,10.4,38.6,36.04,90.43,58.1,147.41,58.1s108.81-22.06,147.41-58.1c2.99-2.79,3.04-7.51,.15-10.4Z"/>
      <path class="cls-11" d="M416.4,79.35l-16.17-57.53v-.9c0-4.1-3.41-7.39-7.51-7.25-54.01,1.84-102.98,23.51-139.88,57.95-3,2.8-3.07,7.52-.17,10.42l135.2,135.2c4.56,4.56,12.37,1.33,12.37-5.12v-75.23l16.17-57.53Z"/>
    </g>
    <circle class="cls-10" cx="400.18" cy="229.54" r="101.72"/>
    <g>
      <g>
        <path class="cls-13" d="M333.97,278.4c.2-.31,1.34-2.2,1.53-2.49,.19-.29,.48-.18,.76-.11,.84,.23,2.42,.27,2.91,.27h5.37c1.21,0,2.69-.19,3.09-.29,.19-.05,.41-.08,.59,.2,.11,.18,1.49,2.33,1.61,2.53,.19,.32,.32,1.12-.75,.54-1.21-.66-1.7-.96-3.5-.96h-2.45v11.03c0,.56,0,1.51,1.08,2.19,.42,.26,.41,.62,0,.59-1.39-.11-3.34-.07-4.01,0-.64,.07-.63-.24-.24-.59,.57-.52,.6-1.14,.6-2.19v-11.03h-2.49s-1.71-.11-3.67,1.04c-.54,.32-.78-.19-.43-.72Z"/>
        <path class="cls-13" d="M348.37,281.44c-.08-.2-.07-.37,.11-.46,.17-.08,6.7-2.16,8.45,1.59,1.77,3.8,2.83,6.29,3.86,7.89,.12,.19,.42,.68,.9,.63,.6-.06,.66,.44-.11,.66-.78,.22-1.89,.2-2.4-.16-.27-.19-.41-.41-.5-.6-.08-.19-.95-1.94-.95-1.94,0,0-.9,2.84-5.62,2.84s-5.21-2.74-5.21-3.63c0-1.62,1.28-3.82,4.94-3.87,1.71-.01,2.33,.27,2.6,.32,.28,.05,1.08,.28,1.06-.64-.03-.92-1.31-1.86-3.64-1.86-1.02,0-1.75,.21-1.96,.39-.18,.16-.24,.36-.29,.6-.05,.24-.27,.35-.43,0-.16-.35-.8-1.77-.8-1.77Zm6.25,5.11c-.29-.09-.79-.4-2.2-.4-2.27,0-3.37,1.06-3.37,1.99s.8,2,2.91,2c2.81,0,3.81-1.14,4.21-1.92,.63-1.22,.04-1.79,.04-1.79-.5,.37-1.01,.31-1.59,.12Z"/>
        <path class="cls-13" d="M375.76,281.44c-.08-.2-.07-.37,.11-.46,.17-.08,6.7-2.16,8.45,1.59,1.77,3.8,2.83,6.29,3.86,7.89,.12,.19,.42,.68,.9,.63,.6-.06,.66,.44-.11,.66-.78,.22-1.89,.2-2.4-.16-.27-.19-.41-.41-.5-.6-.08-.19-.95-1.94-.95-1.94,0,0-.9,2.84-5.62,2.84s-5.21-2.74-5.21-3.63c0-1.62,1.28-3.82,4.94-3.87,1.71-.01,2.33,.27,2.6,.32,.28,.05,1.08,.28,1.06-.64-.03-.92-1.31-1.86-3.64-1.86-1.02,0-1.75,.21-1.96,.39-.18,.16-.24,.36-.29,.6-.05,.24-.27,.35-.43,0-.16-.35-.8-1.77-.8-1.77Zm6.25,5.11c-.29-.09-.79-.4-2.2-.4-2.27,0-3.37,1.06-3.37,1.99s.8,2,2.91,2c2.81,0,3.81-1.14,4.21-1.92,.63-1.22,.04-1.79,.04-1.79-.5,.37-1.01,.31-1.59,.12Z"/>
        <path class="cls-13" d="M361.95,280.91c.46,.26,.63,.76,.66,1.69,.03,.96,.18,6.98-.06,8.86-.05,.42,.49,.4,.49,.4h1.85c.48,0,.45-.32,.44-.46-.16-1.73-.16-8.09-.12-10.34,0-.24,.06-.68-.38-.68s-2.43-.02-2.83-.02-.36,.38-.04,.56Z"/>
        <path class="cls-13" d="M365.39,277.89c0,.9-.73,1.63-1.63,1.63s-1.63-.73-1.63-1.63,.73-1.63,1.63-1.63,1.63,.73,1.63,1.63Z"/>
        <path class="cls-13" d="M366.18,280.98c.25,.27,.24,1.08,.25,1.43,.03,.83,0,7.6-.11,8.94-.03,.35,.17,.54,.41,.54h1.59c.31,0,.6-.07,.58-.51-.07-1.4-.09-4.2-.06-4.76,.03-.65,.26-1.47,1.48-2.39,1.15-.87,3.2-1.81,4.51-1.93,.87-.08,.91-.6,.28-.83-.72-.27-1.55-.64-2.05-.91-.31-.17-.5-.2-1,.05-.72,.36-1.98,1.18-2.96,2.09-.25,.23-.28,.13-.27-.16,.01-.29,0-1.43,0-1.69,0-.31-.34-.48-.55-.48h-2.12c-.58,0-.14,.44,0,.6Z"/>
        <path class="cls-13" d="M404.53,280.92c.25,.27,.24,1.08,.25,1.43,.03,.83,0,7.6-.11,8.94-.03,.35,.17,.54,.42,.54h1.59c.31,0,.6-.07,.58-.51-.07-1.4-.09-4.2-.06-4.76,.03-.65,.26-1.47,1.48-2.39,1.15-.87,3.2-1.81,4.51-1.93,.87-.08,.91-.6,.28-.83-.72-.27-1.55-.64-2.05-.91-.31-.17-.5-.2-1,.05-.72,.36-1.98,1.18-2.96,2.09-.25,.23-.28,.13-.27-.16,.01-.29,0-1.43,0-1.69,0-.31-.34-.48-.55-.48h-2.12c-.58,0-.14,.44,0,.6Z"/>
        <path class="cls-13" d="M390.41,276.06c2.14,.01,6.05,.01,8.29,.01,3.46,0,5.04,2.58,5.04,4.35,0,1.24-.66,4.74-5.27,4.74-1.77,0-4.45-.01-4.67-.01s-.27,.1-.27,.27,0,3.13,0,3.47-.13,1.81,.83,2.3c.53,.27,.46,.66-.06,.66h-4c-.49,0-.44-.41,.02-.76,.45-.35,.44-.82,.44-1.62v-11.37c0-.23-.09-1.07-.48-1.47-.22-.22-.2-.56,.11-.56Zm3.12,7.46h3.05c2.61,0,4.12-.95,4.12-3.07,0-2.38-2.43-2.86-4.16-2.86-1.43,0-2.44,.01-3.02,.01v5.92Z"/>
        <path class="cls-13" d="M424.53,286.27c0,3.11-2.7,5.63-6.04,5.63s-6.04-2.52-6.04-5.63,2.7-5.63,6.04-5.63,6.04,2.52,6.04,5.63Zm-6.07-4.1c-2.02,0-3.66,1.85-3.66,4.13s1.64,4.13,3.66,4.13,3.66-1.85,3.66-4.13-1.64-4.13-3.66-4.13Z"/>
        <path class="cls-13" d="M451.85,286.11c0,3.11-2.7,5.63-6.04,5.63s-6.04-2.52-6.04-5.63,2.7-5.63,6.04-5.63,6.04,2.52,6.04,5.63Zm-6.07-4.1c-2.02,0-3.66,1.85-3.66,4.13s1.64,4.13,3.66,4.13,3.66-1.85,3.66-4.13-1.64-4.13-3.66-4.13Z"/>
        <path class="cls-13" d="M424.83,281.26c.27,.27,.22,.64,.24,1.17,.01,.32,.02,6.88-.04,8.56-.02,.56,.04,.68,.29,.7,.24,.02,1.67,0,1.9,0s.45-.08,.43-.34c-.08-1-.08-6.03-.08-6.75s.65-1.81,1.73-1.81c1.53,0,1.67,1.25,1.69,1.65,.06,1.09,0,6.65-.02,6.83-.02,.18,.02,.38,.22,.38h1.94c.24,0,.32-.14,.31-.4-.06-1.08-.08-6.28-.08-6.71,0-.76,.51-1.75,1.92-1.73,1.41,.02,1.73,1.16,1.73,1.64,0,.26,.12,6,.05,6.75-.01,.12-.05,.45,.19,.45,.29,0,1.6,.02,1.87,.01,.34-.01,.27-.28,.25-.59-.09-1.92-.06-6.78-.11-7.28-.04-.46-.58-2.98-3.15-2.98-1.45,0-2.49,1-2.94,1.63-.16-.64-1.12-1.73-2.69-1.69-2.04,.05-2.66,1.35-2.9,1.69v-1.21c0-.22-.18-.4-.51-.4-.16,0-1.88-.09-2.24-.09s-.26,.29,0,.54Z"/>
        <path class="cls-13" d="M451.65,281.61h1.71v-1.18c0-.28,0-.71-.22-.85-.22-.14-.24-.4,.04-.5,.1-.04,1.93-.43,2.11-.48,.34-.1,.5-.02,.48,.24-.02,.26,0,2.78,0,2.78h2.52s.24-.02,.24,.22v.92c0,.12-.03,.2-.21,.2h-2.55v5.84c0,1.71,2.67,1.57,3.47,.83,.16-.15,.32,0,.32,0l.23,.71s.09,.15-.04,.28c-.18,.18-1.16,1.18-3.41,1.18s-2.98-1.61-2.98-2.73v-6.09h-1.61c-.22,0-.22-.14-.22-.28v-.92c0-.1,.04-.16,.12-.16Z"/>
        <path class="cls-13" d="M468.68,288.64c.08,.03,.88,.66,.96,.7,.1,.04,.11,.11,.04,.2-1.08,1.42-2.54,2.12-4.99,2.12-3.3,0-5.65-2.58-5.65-5.75s2.47-5.29,5.77-5.29,5.02,2.23,5.02,5.4c0,.35-.1,.51-.44,.51h-1.31s-6.47,0-6.47,0c.1,2.05,1.5,3.36,3.69,3.36,1.31,0,2.38-.37,3.24-1.23,0,0,.06-.04,.14-.02Zm-1.13-3.84c0-1.86-1.46-2.63-2.77-2.62-1.66,0-2.94,.88-3.17,2.6l5.94,.02Z"/>
      </g>
      <g>
        <path class="cls-13" d="M412.85,167.77c-11.5-5.22-30.41,11.65-42.23,37.69-11.81,26.03-12.06,51.37-.54,56.59,11.5,5.23,30.41-11.64,42.22-37.69,11.82-26.03,12.06-51.37,.55-56.59Zm-8.4,53.08c-8.86,19.52-23.04,32.18-31.67,28.27-8.63-3.91-8.45-22.93,.4-42.45,8.86-19.53,23.04-32.18,31.68-28.26,8.63,3.91,8.44,22.92-.41,42.45Z"/>
        <path class="cls-13" d="M407.09,234.55c-.69,1.19-1.36,2.36-2.08,3.49,1.17-.26,2.34-.54,3.53-.85,29.28-7.57,50.02-25.35,46.31-39.72-3.71-14.36-30.47-19.89-59.76-12.31-29.28,7.56-50.01,25.34-46.3,39.71,3.01,11.63,21.11,17.46,43.44,15.24,.97-1.06,1.87-2.22,2.81-3.44-17.97,1.83-32.57-2.82-34.98-12.18-2.98-11.49,13.61-25.71,37.04-31.76,23.43-6.05,44.82-1.64,47.8,9.85,2.97,11.5-13.62,25.71-37.05,31.77-.26,.07-.5,.13-.77,.2Z"/>
      </g>
    </g>
  </g>
  <g id="_レイヤー_2" data-name="レイヤー 2">
    <text class="cls-6" transform="translate(427.26 87.55)"><tspan x="0" y="0">現状把握</tspan></text>
    <text class="cls-6" transform="translate(496.32 289.62)"><tspan x="0" y="0">解決策立案</tspan></text>
    <text class="cls-6" transform="translate(506.98 178.73)"><tspan x="0" y="0">課題形成</tspan></text>
    <text class="cls-6" transform="translate(329.53 371.23)"><tspan x="0" y="0">コンテンツ制作</tspan></text>
    <text class="cls-6" transform="translate(326.04 87.37)"><tspan x="0" y="0">改善</tspan></text>
    <text class="cls-6" transform="translate(229.35 180.51)"><tspan x="0" y="0">運用</tspan></text>
    <text class="cls-6" transform="translate(197.38 289.63)"><tspan x="0" y="0">体制の構築</tspan></text>
    <text/>
    <text class="cls-7" transform="translate(265.73 393.48)"><tspan class="cls-15" x="0" y="0">(</tspan><tspan class="cls-5" x="8.11" y="0">ドキュメント、動画、VR、アプリケーショ</tspan><tspan class="cls-14" x="249.1" y="0">ン</tspan><tspan class="cls-5" x="264.64" y="0">)</tspan></text>
    <text class="cls-8" transform="translate(563.02 15.84)"><tspan class="cls-1" x="0" y="0">人・モノへの</tspan><tspan class="cls-9" x="108.11" y="0">現地・現物</tspan><tspan class="cls-3" x="198.2" y="0">取材</tspan></text>
    <text class="cls-2" transform="translate(617.42 163.45)"><tspan x="0" y="0">企業課題本質の顕在化</tspan></text>
    <text class="cls-2" transform="translate(577.4 382.45)"><tspan x="0" y="0">最新技術・アイデアを駆使</tspan></text>
    <text class="cls-2" transform="translate(7.78 159.62)"><tspan x="0" y="0">運用しデータ分析</tspan></text>
    <text class="cls-2" transform="translate(7.78 382.62)"><tspan x="0" y="0">運用方法の社内展開</tspan></text>
    <text class="cls-4" transform="translate(7.78 15.91)"><tspan x="0" y="0">運用の定着化</tspan></text>
  </g>
  <g id="_レイヤー_3" data-name="レイヤー 3">
    <polyline class="cls-12" points="800 23.47 526.78 23.47 503.5 45.97"/>
    <polyline class="cls-12" points="800 169.47 614.78 169.47 591.5 191.97"/>
    <polyline class="cls-12" points="800 389.47 576.78 389.47 553.5 366.97"/>
    <polyline class="cls-12" points="0 389.47 223.22 389.47 246.5 366.97"/>
    <polyline class="cls-12" points="0 167.47 185.22 167.47 208.5 189.97"/>
    <polyline class="cls-12" points="1 23.47 274.22 23.47 297.5 45.97"/>
  </g>
</svg>