<?xml version="1.0" encoding="UTF-8"?>
<svg xmlns="http://www.w3.org/2000/svg" xmlns:xlink="http://www.w3.org/1999/xlink" viewBox="0 0 557 487.82">
  <defs>
    <style>
      .cls-1 {
        fill: #ffc000;
        filter: url(#drop-shadow-2);
      }

      .cls-2 {
        fill: #a162d0;
        filter: url(#drop-shadow-4);
      }

      .cls-3 {
        clip-path: url(#clippath-3);
      }

      .cls-3, .cls-4, .cls-5, .cls-6, .cls-7, .cls-8, .cls-9, .cls-10 {
        fill: none;
      }

      .cls-3, .cls-4, .cls-5, .cls-6, .cls-7, .cls-9, .cls-10 {
        clip-rule: evenodd;
      }

      .cls-4 {
        clip-path: url(#clippath-12);
      }

      .cls-11 {
        clip-path: url(#clippath-11);
      }

      .cls-12 {
        clip-path: url(#clippath-16);
      }

      .cls-13, .cls-14 {
        fill: #fff;
      }

      .cls-15 {
        fill: #111827;
      }

      .cls-15, .cls-14 {
        font-family: MeiryoUI-Bold, 'Meiryo UI';
        font-size: 41.27px;
        font-weight: 700;
      }

      .cls-5 {
        clip-path: url(#clippath-9);
      }

      .cls-16 {
        fill: #92d050;
        filter: url(#drop-shadow-6);
      }

      .cls-6 {
        clip-path: url(#clippath);
      }

      .cls-17 {
        clip-path: url(#clippath-2);
      }

      .cls-18 {
        clip-path: url(#clippath-13);
      }

      .cls-19 {
        fill: #dcc205;
        filter: url(#drop-shadow-5);
      }

      .cls-20 {
        clip-path: url(#clippath-7);
      }

      .cls-21 {
        clip-path: url(#clippath-1);
      }

      .cls-22 {
        clip-path: url(#clippath-4);
      }

      .cls-23 {
        fill: #ef5fa7;
        filter: url(#drop-shadow-1);
      }

      .cls-24 {
        clip-path: url(#clippath-8);
      }

      .cls-25 {
        clip-path: url(#clippath-14);
      }

      .cls-26 {
        clip-path: url(#clippath-17);
      }

      .cls-9 {
        clip-path: url(#clippath-6);
      }

      .cls-27 {
        clip-path: url(#clippath-5);
      }

      .cls-28 {
        clip-path: url(#clippath-10);
      }

      .cls-29 {
        fill: #0070c0;
        filter: url(#drop-shadow-3);
      }

      .cls-10 {
        clip-path: url(#clippath-15);
      }
    </style>
    <filter id="drop-shadow-1" filterUnits="userSpaceOnUse">
      <feOffset dx="2" dy="2"/>
      <feGaussianBlur result="blur" stdDeviation="3"/>
      <feFlood flood-color="#000" flood-opacity=".75"/>
      <feComposite in2="blur" operator="in"/>
      <feComposite in="SourceGraphic"/>
    </filter>
    <filter id="drop-shadow-2" filterUnits="userSpaceOnUse">
      <feOffset dx="2" dy="2"/>
      <feGaussianBlur result="blur-2" stdDeviation="3"/>
      <feFlood flood-color="#000" flood-opacity=".75"/>
      <feComposite in2="blur-2" operator="in"/>
      <feComposite in="SourceGraphic"/>
    </filter>
    <filter id="drop-shadow-3" filterUnits="userSpaceOnUse">
      <feOffset dx="2" dy="2"/>
      <feGaussianBlur result="blur-3" stdDeviation="3"/>
      <feFlood flood-color="#000" flood-opacity=".75"/>
      <feComposite in2="blur-3" operator="in"/>
      <feComposite in="SourceGraphic"/>
    </filter>
    <filter id="drop-shadow-4" filterUnits="userSpaceOnUse">
      <feOffset dx="2" dy="2"/>
      <feGaussianBlur result="blur-4" stdDeviation="3"/>
      <feFlood flood-color="#000" flood-opacity=".75"/>
      <feComposite in2="blur-4" operator="in"/>
      <feComposite in="SourceGraphic"/>
    </filter>
    <filter id="drop-shadow-5" filterUnits="userSpaceOnUse">
      <feOffset dx="2" dy="2"/>
      <feGaussianBlur result="blur-5" stdDeviation="3"/>
      <feFlood flood-color="#000" flood-opacity=".75"/>
      <feComposite in2="blur-5" operator="in"/>
      <feComposite in="SourceGraphic"/>
    </filter>
    <filter id="drop-shadow-6" filterUnits="userSpaceOnUse">
      <feOffset dx="2" dy="2"/>
      <feGaussianBlur result="blur-6" stdDeviation="3"/>
      <feFlood flood-color="#000" flood-opacity=".75"/>
      <feComposite in2="blur-6" operator="in"/>
      <feComposite in="SourceGraphic"/>
    </filter>
    <clipPath id="clippath">
      <polygon class="cls-7" points="289.15 453.02 375.55 453.02 375.55 366.62 289.15 366.62 289.15 453.02 289.15 453.02"/>
    </clipPath>
    <clipPath id="clippath-1">
      <polygon class="cls-6" points="289.15 366.62 375.55 366.62 375.55 453.02 289.15 453.02 289.15 366.62 289.15 366.62"/>
    </clipPath>
    <clipPath id="clippath-2">
      <polygon class="cls-8" points="289.15 453.02 375.55 453.02 375.55 366.62 289.15 366.62 289.15 453.02 289.15 453.02"/>
    </clipPath>
    <clipPath id="clippath-3">
      <polygon class="cls-7" points="289.15 309.02 375.55 309.02 375.55 222.62 289.15 222.62 289.15 309.02 289.15 309.02"/>
    </clipPath>
    <clipPath id="clippath-4">
      <polygon class="cls-3" points="289.15 222.62 375.55 222.62 375.55 309.02 289.15 309.02 289.15 222.62 289.15 222.62"/>
    </clipPath>
    <clipPath id="clippath-5">
      <polygon class="cls-8" points="289.15 309.02 375.55 309.02 375.55 222.62 289.15 222.62 289.15 309.02 289.15 309.02"/>
    </clipPath>
    <clipPath id="clippath-6">
      <polygon class="cls-7" points="21.54 309.02 107.94 309.02 107.94 222.62 21.54 222.62 21.54 309.02 21.54 309.02"/>
    </clipPath>
    <clipPath id="clippath-7">
      <polygon class="cls-9" points="21.54 222.62 107.94 222.62 107.94 309.02 21.54 309.02 21.54 222.62 21.54 222.62"/>
    </clipPath>
    <clipPath id="clippath-8">
      <polygon class="cls-8" points="21.54 309.02 107.94 309.02 107.94 222.62 21.54 222.62 21.54 309.02 21.54 309.02"/>
    </clipPath>
    <clipPath id="clippath-9">
      <polygon class="cls-7" points="21.54 453.02 107.94 453.02 107.94 366.62 21.54 366.62 21.54 453.02 21.54 453.02"/>
    </clipPath>
    <clipPath id="clippath-10">
      <polygon class="cls-5" points="21.54 366.62 107.94 366.62 107.94 453.02 21.54 453.02 21.54 366.62 21.54 366.62"/>
    </clipPath>
    <clipPath id="clippath-11">
      <polygon class="cls-8" points="21.54 453.02 107.94 453.02 107.94 366.62 21.54 366.62 21.54 453.02 21.54 453.02"/>
    </clipPath>
    <clipPath id="clippath-12">
      <polygon class="cls-7" points="21.54 165.02 107.94 165.02 107.94 78.62 21.54 78.62 21.54 165.02 21.54 165.02"/>
    </clipPath>
    <clipPath id="clippath-13">
      <polygon class="cls-4" points="21.54 78.62 107.94 78.62 107.94 165.02 21.54 165.02 21.54 78.62 21.54 78.62"/>
    </clipPath>
    <clipPath id="clippath-14">
      <polygon class="cls-8" points="21.54 165.02 107.94 165.02 107.94 78.62 21.54 78.62 21.54 165.02 21.54 165.02"/>
    </clipPath>
    <clipPath id="clippath-15">
      <polygon class="cls-7" points="289.15 165.02 375.55 165.02 375.55 78.62 289.15 78.62 289.15 165.02 289.15 165.02"/>
    </clipPath>
    <clipPath id="clippath-16">
      <polygon class="cls-10" points="289.15 78.62 375.55 78.62 375.55 165.02 289.15 165.02 289.15 78.62 289.15 78.62"/>
    </clipPath>
    <clipPath id="clippath-17">
      <polygon class="cls-8" points="289.15 165.02 375.55 165.02 375.55 78.62 289.15 78.62 289.15 165.02 289.15 165.02"/>
    </clipPath>
  </defs>
  <g id="object">
    <g>
      <rect class="cls-23" x="7.5" y="55.32" width="262" height="133" rx="10" ry="10"/>
      <rect class="cls-1" x="283.5" y="55.32" width="262" height="133" rx="10" ry="10"/>
      <rect class="cls-29" x="7.5" y="199.32" width="262" height="133" rx="10" ry="10"/>
      <rect class="cls-2" x="283.5" y="199.32" width="262" height="133" rx="10" ry="10"/>
      <rect class="cls-19" x="7.5" y="343.32" width="262" height="133" rx="10" ry="10"/>
      <rect class="cls-16" x="283.5" y="343.32" width="262" height="133" rx="10" ry="10"/>
    </g>
    <g class="cls-21">
      <g class="cls-17">
        <path class="cls-13" d="M363.77,402.28h-.8l-2.31-6.23c5.34-3.02,7.2-9.78,4.27-15.12-3.02-5.34-9.78-7.2-15.12-4.27-2.58,1.42-4.54,3.91-5.25,6.76l-8.27-.89c-.62-3.91-4.27-6.67-8.18-6.05-3.56,.53-6.14,3.56-6.14,7.12,0,1.25,.36,2.49,.98,3.65l-9.96,9.78c-1.87-1.42-4.18-2.22-6.58-2.22-6.14,0-11.12,4.98-11.12,11.12s4.98,11.12,11.12,11.12l2.22,13.34c-3.65,1.6-5.34,5.87-3.74,9.52,1.6,3.65,5.87,5.34,9.52,3.74,3.38-1.42,5.07-5.16,4.09-8.72l7.83-4.09c5.07,5.6,13.79,6.05,19.48,.98,2.85-2.58,4.54-6.31,4.54-10.14,0-.98-.09-2.05-.36-3.02l8.63-4.45c2.67,3.02,7.2,3.29,10.23,.62,3.02-2.67,3.29-7.2,.62-10.23-1.69-1.42-3.65-2.31-5.69-2.31h0Zm0,2.67c1.16,0,2.05,.89,2.05,2.05s-.89,2.05-2.05,2.05-2.05-.89-2.05-2.05h0c0-1.16,.89-2.05,2.05-2.05h0Zm-8.54-25.35c1.69,0,3.11,1.42,3.11,3.11s-1.42,3.11-3.11,3.11-3.11-1.42-3.11-3.11h0c0-1.69,1.33-3.11,3.11-3.11h0Zm-6.31,10.14c0-.44,.27-.98,.62-1.25,.89-.62,1.96-1.16,3.02-1.42,.8-.27,1.69-.36,2.58-.36s1.78,.18,2.58,.36c1.07,.27,2.13,.8,3.02,1.51,.36,.27,.62,.8,.62,1.25v2.4h-12.45v-2.49h0Zm-19.83-10.67c1.16,0,2.05,.89,2.05,2.05s-.89,2.05-2.05,2.05-2.05-.89-2.05-2.05h0c0-1.07,.89-2.05,2.05-2.05h0Zm-4.18,6.67c0-.36,.18-.62,.44-.8,.62-.44,1.33-.71,2.05-.89,.53-.18,1.16-.27,1.69-.27s1.16,.09,1.69,.27c.71,.18,1.33,.53,1.96,.98,.27,.18,.44,.53,.44,.8v1.6h-8.18v-1.69h-.09Zm-18.68,13.43c1.69,0,3.11,1.42,3.11,3.11s-1.42,3.11-3.11,3.11-3.11-1.42-3.11-3.11h0c.09-1.69,1.42-3.11,3.11-3.11h0Zm-6.23,12.54v-2.4c0-.44,.27-.98,.62-1.25,.89-.62,1.96-1.16,3.02-1.42,.8-.27,1.69-.36,2.58-.36s1.78,.18,2.58,.36c1.07,.27,2.13,.8,3.02,1.51,.36,.27,.62,.8,.62,1.25v2.4l-12.45-.09h0Zm15.39,28.99h-8.27v-1.6c0-.36,.18-.62,.44-.8,.62-.44,1.33-.8,2.05-.98,.53-.18,1.16-.27,1.69-.27s1.16,.09,1.69,.27c.71,.18,1.33,.53,1.96,.98,.27,.18,.44,.53,.44,.8v1.6h0Zm-6.23-6.23c0-1.16,.89-2.05,2.05-2.05s2.05,.89,2.05,2.05-.89,2.05-2.05,2.05c-1.07,.09-1.96-.89-2.05-2.05h0Zm7.11-2.49c-1.16-1.16-2.76-1.87-4.36-2.05l-2.22-13.34c2.13-.71,4-2.05,5.34-3.82l8.27,4.36c-1.33,3.56-1.07,7.56,.71,10.94l-7.74,3.91h0Zm8.72-18.14l-8.18-4.27c.36-1.16,.53-2.31,.53-3.56,0-2.31-.71-4.54-2.05-6.4l9.96-9.69c3.38,2.05,7.83,1.07,9.87-2.31,.27-.44,.44-.89,.62-1.33l8.27,.89c.18,3.2,1.78,6.23,4.36,8.18l-7.29,13.61c-5.78-2.31-12.45-.27-16.1,4.89h0Zm15.12,3.29c0,2.13-1.78,3.82-3.91,3.82s-3.82-1.69-3.82-3.82,1.69-3.82,3.82-3.82h.09c2.13,0,3.82,1.69,3.82,3.82h0Zm3.82,11.65h-15.39v-2.93c0-.62,.27-1.16,.8-1.51,1.16-.8,2.4-1.42,3.74-1.87,1.07-.27,2.13-.44,3.2-.44s2.13,.18,3.2,.44c1.33,.36,2.67,.98,3.74,1.87,.44,.36,.8,.98,.8,1.51l-.09,2.93h0Zm12.63-19.21c0,.53,.09,1.07,.27,1.6l-8.18,4.27c-.98-1.96-2.49-3.56-4.27-4.8l7.29-13.61c1.16,.44,2.4,.62,3.65,.62,.71,0,1.42-.09,2.13-.18l2.31,6.23c-2.13,1.25-3.29,3.47-3.2,5.87h0Zm11.29,3.56h-8.27v-1.6c0-.36,.18-.62,.44-.8,.62-.44,1.33-.8,2.05-.98,.53-.18,1.16-.27,1.69-.27s1.16,.09,1.69,.27c.71,.18,1.33,.53,1.96,.98,.27,.18,.44,.53,.44,.8v1.6h0Z"/>
      </g>
    </g>
    <g class="cls-22">
      <g class="cls-27">
        <path class="cls-13" d="M336.96,258.24h-7.84c-.74,0-1.33,.6-1.33,1.33s.6,1.33,1.33,1.33h7.84c.74,0,1.33-.6,1.33-1.33s-.6-1.33-1.33-1.33h0Z"/>
        <path class="cls-13" d="M333.03,265.31c1.5,0,2.75-1.17,2.85-2.67h-5.68c.09,1.5,1.34,2.67,2.84,2.67h0Z"/>
        <path class="cls-13" d="M333.03,232.79h0c-6.21,.04-11.26,5.03-11.37,11.24v.39c.03,1.36,.3,2.71,.79,3.98,.46,1.19,1.13,2.28,1.97,3.24,1.05,1.33,1.95,2.78,2.67,4.32,.15,.3,.45,.48,.78,.49h10.32c.33,0,.63-.19,.78-.49,.72-1.54,1.61-2.99,2.67-4.32,.84-.96,1.51-2.05,1.97-3.24,.48-1.26,.75-2.59,.79-3.94v-.39c-.09-6.23-5.15-11.24-11.37-11.29h0Zm8.75,11.56c-.04,1.05-.25,2.09-.62,3.07-.35,.88-.85,1.69-1.49,2.4-1,1.21-1.86,2.53-2.55,3.94h-8.17c-.7-1.41-1.56-2.73-2.56-3.94-.63-.71-1.13-1.52-1.48-2.4-.38-.98-.59-2.02-.62-3.07v-.32c.08-4.78,3.96-8.62,8.74-8.64h0c4.78,.03,8.66,3.87,8.75,8.64v.32Z"/>
        <polygon class="cls-13" points="328.75 246.92 333.45 237.74 333.45 243.06 338.34 242.09 333.45 251.08 333.45 245.86 328.75 246.92 328.75 246.92 328.75 246.92"/>
        <path class="cls-13" d="M358.38,271.12c0,3.82-3.1,6.92-6.92,6.92s-6.92-3.1-6.92-6.92c0-3.82,3.1-6.92,6.92-6.92,3.82,0,6.92,3.1,6.92,6.92h0Z"/>
        <path class="cls-13" d="M321.47,271.12c0,3.82-3.1,6.92-6.92,6.92s-6.92-3.1-6.92-6.92c0-3.82,3.1-6.92,6.92-6.92,3.82,0,6.92,3.1,6.92,6.92h0Z"/>
        <path class="cls-13" d="M363.91,284.03c-1.99-1.55-4.3-2.65-6.76-3.23-1.85-.54-3.76-.84-5.69-.89-1.93,0-3.85,.3-5.69,.89-1.84,.49-3.6,1.25-5.23,2.24-.11,.12-.2,.25-.32,.36,2.59,.7,5.01,1.91,7.11,3.56,1.66,1.21,2.64,3.16,2.61,5.22v1.58h15.36v-6.96c.03-1.1-.49-2.14-1.39-2.77h0Z"/>
        <path class="cls-13" d="M316.09,292.19c0-2,.92-3.89,2.49-5.13l.11-.09,.12-.08c2.13-1.52,4.49-2.69,6.99-3.47-.18-.19-.34-.38-.51-.58-1.56-.91-3.25-1.6-5.01-2.04-1.85-.54-3.76-.84-5.69-.89-1.93,0-3.85,.3-5.69,.89-2.43,.67-4.71,1.76-6.76,3.23-.88,.66-1.4,1.68-1.42,2.77v6.96h15.38v-1.58h0Z"/>
        <path class="cls-13" d="M319.17,299.1v-6.92c0-1.09,.52-2.11,1.39-2.77,2.04-1.47,4.33-2.57,6.76-3.23,1.84-.6,3.76-.9,5.69-.89,1.93,.05,3.84,.34,5.69,.89,2.46,.57,4.77,1.67,6.77,3.23,.89,.64,1.41,1.67,1.38,2.77v6.92h-27.68Z"/>
        <path class="cls-13" d="M339.93,276.5c0,3.82-3.1,6.92-6.92,6.92-3.82,0-6.92-3.1-6.92-6.92,0-3.82,3.1-6.92,6.92-6.92s6.92,3.1,6.92,6.92h0Z"/>
      </g>
    </g>
    <g class="cls-20">
      <g class="cls-24">
        <polygon class="cls-13" points="88.24 269.71 97.22 260.73 102.47 265.98 102.47 251.74 88.24 251.74 93.48 256.99 84.68 265.8 69.56 280.92 56.22 267.58 28.56 295.24 32.3 298.97 56.22 275.05 69.56 288.39 88.24 269.71 88.24 269.71 88.24 269.71"/>
        <path class="cls-13" d="M42.88,241.29c0,2.46-1.99,4.45-4.45,4.45s-4.45-1.99-4.45-4.45c0-2.46,1.99-4.45,4.45-4.45s4.45,1.99,4.45,4.45h0Z"/>
        <path class="cls-13" d="M81.27,264.16l.89-.89,2.04-2.04-2.47-11.12c-.08-.39-.29-.75-.6-1-1.07-.84-2.27-1.48-3.56-1.89-2.32-.79-4.84-.79-7.17,0-1.29,.42-2.49,1.06-3.56,1.89-.31,.25-.52,.61-.6,1l-1.12,5.21h0l-1.17-5.21c-.08-.39-.3-.75-.61-1-1.07-.84-2.27-1.48-3.56-1.89-3.65-1.18-7.65-.47-10.67,1.89-.31,.25-.52,.61-.6,1l-1.17,5.04h0l-1.16-5.04c-.09-.39-.31-.74-.62-1-1.07-.83-2.27-1.48-3.56-1.89-2.32-.79-4.84-.79-7.17,0-1.29,.42-2.49,1.06-3.56,1.89-.31,.25-.52,.61-.6,1l-2.83,12.91c-.25,.99,.35,2.01,1.34,2.26,.02,0,.05,.01,.07,.02,.1,0,.2,0,.29,0,.85,.02,1.6-.57,1.78-1.4l2.67-11.94h0v6.31l-2.67,13.25h2.67v13.24l3.56-3.56v-9.69h1.78v7.91l3.56-3.56v-4.35h2.67l-2.67-13.24v-6.23h0l2.67,11.62c.08,.92,.85,1.63,1.78,1.63h0c.83,0,1.55-.59,1.73-1.4l.05-.38,2.6-11.41h0v14.92l1.97-1.97c1.39-1.39,3.64-1.39,5.03,0,0,0,0,0,0,0l1.97,1.89v-14.83h0l2.67,11.79c.19,.83,.93,1.41,1.78,1.39h0c.83,0,1.55-.58,1.73-1.4l2.67-11.79h0v23.75h0l3.56-3.56v-6.11h1.78v4.37l3.56-3.56v-14.88h0l2.8,12.04h.06Z"/>
        <path class="cls-13" d="M78.45,241.29c0,2.46-1.99,4.45-4.45,4.45s-4.45-1.99-4.45-4.45c0-2.46,1.99-4.45,4.45-4.45s4.45,1.99,4.45,4.45h0Z"/>
        <path class="cls-13" d="M60.63,241.29c0,2.46-1.99,4.45-4.45,4.45s-4.45-1.99-4.45-4.45c0-2.46,1.99-4.45,4.45-4.45s4.45,1.99,4.45,4.45h0Z"/>
      </g>
    </g>
    <g class="cls-28">
      <g class="cls-11">
        <path class="cls-13" d="M79.72,431.54h-29.35c-3.68,0-6.67,2.99-6.67,6.67s2.99,6.67,6.67,6.67h29.35c3.68,0,6.67-2.99,6.67-6.67s-2.99-6.67-6.67-6.67h0Zm-27.57,9.34c-1.47,0-2.67-1.19-2.67-2.67s1.19-2.67,2.67-2.67,2.67,1.19,2.67,2.67-1.19,2.67-2.67,2.67h0Zm12.9,0c-1.47,0-2.67-1.19-2.67-2.67s1.19-2.67,2.67-2.67,2.67,1.19,2.67,2.67-1.19,2.67-2.67,2.67h0Zm12.9,0c-1.47,0-2.67-1.19-2.67-2.67s1.19-2.67,2.67-2.67,2.67,1.19,2.67,2.67-1.19,2.67-2.67,2.67h0Z"/>
        <path class="cls-13" d="M71.19,392.41c0,.74-.6,1.33-1.33,1.33s-1.33-.6-1.33-1.33,.6-1.33,1.33-1.33,1.33,.6,1.33,1.33h0Z"/>
        <path class="cls-13" d="M72.77,383.52h-5.88v-4.05c1.7-.98,2.28-3.16,1.3-4.86-.98-1.7-3.16-2.28-4.86-1.3-1.7,.98-2.28,3.16-1.3,4.86,.31,.54,.76,.99,1.3,1.3v4.05h-5.88c-2.15,0-3.9,1.75-3.9,3.9v9.98c0,2.15,1.75,3.9,3.9,3.9h15.31c2.15,0,3.9-1.75,3.9-3.9v-9.98c0-2.15-1.75-3.9-3.9-3.9h0Zm-12.1,11.56c-1.47,0-2.67-1.19-2.67-2.67s1.19-2.67,2.67-2.67,2.67,1.19,2.67,2.67-1.19,2.67-2.67,2.67h0Zm8.89,0c-1.47,0-2.67-1.19-2.67-2.67s1.19-2.67,2.67-2.67,2.67,1.19,2.67,2.67-1.19,2.67-2.67,2.67h0Z"/>
        <path class="cls-13" d="M62.29,392.41c0,.74-.6,1.33-1.33,1.33s-1.33-.6-1.33-1.33,.6-1.33,1.33-1.33,1.33,.6,1.33,1.33h0Z"/>
        <path class="cls-13" d="M88.24,419.82v-7.41c0-2.21-1.79-3.99-3.99-3.99h-4.9v-4.45h-28.46v5.34h-6.68c-.24,0-.44-.2-.44-.44v-7.37c3.06-.9,4.8-4.11,3.9-7.17-.24-.82-.66-1.58-1.23-2.21l-2.67,2.37c.37,.41,.59,.93,.6,1.49,0,1.23-1.01,2.22-2.24,2.21-1.23,0-2.22-1.01-2.21-2.24,0-.53,.2-1.04,.54-1.44l-2.67-2.34c-2.1,2.41-1.84,6.06,.57,8.16,.54,.47,1.17,.84,1.85,1.08v7.47c0,2.21,1.79,3.99,3.99,3.99h6.68v16.01h28.46v-16.9h4.9c.24,0,.44,.2,.44,.44v7.41c-3.04,.98-4.7,4.24-3.72,7.28,.25,.76,.65,1.46,1.18,2.06l2.67-2.37c-.37-.4-.57-.93-.57-1.48,0-1.23,1-2.22,2.23-2.22,1.23,0,2.22,1,2.22,2.23,0,.54-.2,1.06-.55,1.46l2.67,2.34c2.1-2.39,1.87-6.04-.53-8.15-.59-.52-1.29-.91-2.04-1.16h0Zm-12.45-3.4h-2.47c-.09,.02-.17,.05-.24,.1l-2.72,2.78-2.07-4.91-3.87,8-2.71-10.42-2.09,4.45h-4.28v-1.78h3.15l3.7-7.87,2.74,10.48,3.48-7.12,2.56,6.07,.89-.89c.39-.4,.91-.63,1.47-.67h2.47v1.78h0Z"/>
      </g>
    </g>
    <g class="cls-18">
      <g class="cls-25">
        <path class="cls-13" d="M79.79,125.31l5.78,5.78,5.78-5.78,5.78,5.78,7.11-8.89-7.11-8.89H61.11c-3.2-5.87-9.34-9.78-16.45-9.78-10.32,0-18.68,8.36-18.68,18.68s8.36,18.68,18.68,18.68c7.11,0,13.25-3.91,16.45-9.78h5.78l3.56-3.56,3.56,3.56,5.78-5.78h0Zm-43.13,2.22c-2.93,0-5.34-2.4-5.34-5.34s2.4-5.34,5.34-5.34,5.34,2.4,5.34,5.34-2.4,5.34-5.34,5.34h0Z"/>
      </g>
    </g>
    <g class="cls-12">
      <g class="cls-26">
        <path class="cls-13" d="M325.17,119.17c0,4.42-3.58,8-8,8s-8-3.58-8-8c0-4.42,3.58-8,8-8s8,3.58,8,8h0Z"/>
        <path class="cls-13" d="M354.52,157.77v-8c.03-1.27-.57-2.47-1.6-3.2-2.3-1.8-4.98-3.08-7.83-3.74-2.14-.64-4.35-1-6.58-1.07-2.24,0-4.46,.37-6.58,1.07-2.81,.77-5.46,2.03-7.83,3.74-1,.76-1.6,1.94-1.6,3.2v8h32.02Z"/>
        <path class="cls-13" d="M346.52,131.63c0,4.42-3.58,8-8,8s-8-3.58-8-8c0-4.42,3.58-8,8-8s8,3.58,8,8h0Z"/>
        <path class="cls-13" d="M321.97,143.72h0c2.5-1.78,5.26-3.16,8.18-4.09-2.02-2.11-3.17-4.91-3.2-7.83v-.36c-1.04-.44-2.11-.79-3.2-1.07-2.14-.64-4.35-1-6.58-1.07-2.24,0-4.46,.37-6.58,1.07-2.78,.84-5.42,2.1-7.83,3.74-1.03,.73-1.63,1.93-1.6,3.2v8h19.21c.44-.62,.98-1.16,1.6-1.6h0Z"/>
        <path class="cls-13" d="M362.39,86.62h-33.59c-1.03,0-1.85,.85-1.85,1.88v22.9c-.02,1.03,.8,1.88,1.83,1.9,0,0,.01,0,.02,0h5.34v7.51l7.37-7.51h20.88c1.03,0,1.86-.85,1.86-1.88v-22.93c0-1.03-.83-1.87-1.86-1.88h0Zm-16.95,23.35c-1.09,0-1.97-.88-1.97-1.97,0-1.09,.88-1.97,1.97-1.97,1.08,0,1.96,.87,1.97,1.95,.02,1.09-.84,1.98-1.93,2-.01,0-.03,0-.04,0h0Zm1.27-8.14v2.8h-2.53v-5.24h1.26c2.21,0,3.63-1.29,3.63-3.27,.03-1.96-1.53-3.59-3.49-3.62-.04,0-.09,0-.13,0-1.83-.17-3.45,1.18-3.62,3-.02,.2-.02,.41,0,.62v.22h-2.53v-.22c-.19-3.21,2.26-5.97,5.47-6.16,.23-.01,.46-.01,.69,0,3.36-.04,6.12,2.66,6.16,6.02,0,.05,0,.1,0,.14,.09,2.88-2.03,5.35-4.89,5.71h0Z"/>
      </g>
    </g>
  </g>
  <g id="text">
    <text class="cls-15" transform="translate(48.72 36.23)"><tspan x="0" y="0">解決してきた代表的な課題</tspan></text>
    <text class="cls-14" transform="translate(131.67 137.87)"><tspan x="0" y="0">安全性</tspan></text>
    <text class="cls-14" transform="translate(374.78 137.95)"><tspan x="0" y="0">人材育成</tspan></text>
    <text class="cls-14" transform="translate(132.38 282.01)"><tspan x="0" y="0">効率化</tspan></text>
    <text class="cls-14" transform="translate(374.63 281.85)"><tspan x="0" y="0">技術伝承</tspan></text>
    <text class="cls-14" transform="translate(130.27 425.87)"><tspan x="0" y="0">品質</tspan></text>
    <text class="cls-14" transform="translate(375.65 426.01)"><tspan x="0" y="0">情報共有</tspan></text>
  </g>
</svg>